<svg xmlns="http://www.w3.org/2000/svg" width="24" height="24" fill="none"><path fill="#C8C8D1" fill-rule="evenodd" d="M11 7.25a1.75 1.75 0 1 0 0 3.5 1.75 1.75 0 0 0 0-3.5Zm2.596 4.457a3.75 3.75 0 1 0-5.191 0 4 4 0 1 0 5.191 0ZM11 12.75a2 2 0 1 0 0 4 2 2 0 0 0 0-4ZM2.5 8.866a1 1 0 0 1-1.207-1.573l1.33-1.33c.692-.692 1.877-.202 1.877.778V16.5H5a1 1 0 1 1 0 2H2a1 1 0 1 1 0-2h.5V8.866ZM20 8a1 1 0 0 1 1 1v2h2a1 1 0 1 1 0 2h-2v2a1 1 0 1 1-2 0v-2h-2a1 1 0 1 1 0-2h2V9a1 1 0 0 1 1-1Z" clip-rule="evenodd"/></svg>