<svg xmlns="http://www.w3.org/2000/svg" width="24" height="24" fill="none"><path fill="#C8C8D1" d="M12 8a1 1 0 1 0-2 0v6a1 1 0 1 0 2 0V8Z"/><path fill="#C8C8D1" fill-rule="evenodd" d="M4.509 16.983c.008-.49.023-.966.044-1.43l-.203-.146A8 8 0 0 1 1 8.898V6a2 2 0 0 1 2-2h4.767C9.147 2.326 10.932 1.5 13 1.5c2.068 0 3.853.826 5.233 2.5h3.857a1 1 0 0 1 .944 1.33l-2.027 5.792c.283 1.713.446 3.663.484 5.86A1.987 1.987 0 0 1 19.5 19h-13c-1.1 0-2.01-.895-1.991-2.017Zm2 .017H19.49c-.09-5.063-.864-8.489-2.05-10.616C16.291 4.324 14.778 3.5 13 3.5s-3.292.824-4.441 2.884C7.373 8.511 6.599 11.937 6.509 17ZM3 6h3.506c-.876 1.806-1.474 4.166-1.777 7.112A6 6 0 0 1 3 8.898V6Z" clip-rule="evenodd"/><path fill="#C8C8D1" d="M4.5 21a1 1 0 0 1 1-1h15a1 1 0 1 1 0 2h-15a1 1 0 0 1-1-1Z"/></svg>