<svg xmlns="http://www.w3.org/2000/svg" width="24" height="24" fill="none"><path fill="#C8C8D1" d="M19.207.793a1 1 0 0 1 0 1.414l-1.44 1.44 1.587 1.585 1.439-1.44a1 1 0 1 1 1.414 1.415l-1.726 1.726c.013.09.019.182.019.274v8.879l2.354 2.353a1.5 1.5 0 0 1 0 2.122l-2.647 2.646a1 1 0 0 1-1.414-1.414l1.44-1.44-1.587-1.585-1.439 1.44a1 1 0 0 1-1.414-1.415l1.726-1.726a1.998 1.998 0 0 1-.019-.274V7.914l-2.354-2.353a1.5 1.5 0 0 1 0-2.122L17.793.793a1 1 0 0 1 1.414 0ZM13.347 2.19a1 1 0 0 0-1.811-.848l-.946 2.021a8.691 8.691 0 0 0-1.385.343l-2.06-1.4a1.1 1.1 0 0 0-1.396.131L2.438 5.75a1.1 1.1 0 0 0-.132 1.396l1.4 2.06a8.686 8.686 0 0 0-.286 1.069l-2.243 1.083a1.1 1.1 0 0 0-.584 1.276l1.212 4.523a1.1 1.1 0 0 0 1.143.812l2.487-.183c.315.357.658.687 1.026.989l-.185 2.14a1.1 1.1 0 0 0 .811 1.158l4.132 1.107a1.1 1.1 0 0 0 1.28-.597l1.041-2.223a1 1 0 0 0-1.811-.848l-.721 1.54-2.674-.716.217-2.531a6.766 6.766 0 0 1-2.19-2.093l-2.817.208-.826-3.085 2.543-1.229a6.71 6.71 0 0 1 .705-2.634L4.378 6.636l2.259-2.258 2.335 1.588a6.72 6.72 0 0 1 2.943-.715l1.432-3.061Z"/><path fill="#C8C8D1" d="m12.519 18.73-.02.002.106.072-.086-.074ZM10 12a2 2 0 0 1 2-2h.01a2 2 0 1 1 0 4H12a2 2 0 0 1-2-2Z"/></svg>