<svg xmlns="http://www.w3.org/2000/svg" width="24" height="24" fill="none"><path fill="#C8C8D1" d="M16 2a1.5 1.5 0 0 0 0 3h2a1.5 1.5 0 0 0 0-3h-2Z"/><path fill="#C8C8D1" fill-rule="evenodd" d="M17.036 6h-.072c-.735 0-1.339 0-1.83.035-.506.035-.974.112-1.417.308a4 4 0 0 0-2.187 2.434c-.148.461-.174.935-.156 1.442.018.492.082 1.092.16 1.823l.822 7.664c.024.228.048.451.083.64.04.21.104.452.25.692a2 2 0 0 0 .86.772c.253.12.502.159.714.175.192.015.417.015.645.015h4.184c.228 0 .453 0 .645-.015.213-.016.46-.055.715-.175a2 2 0 0 0 .859-.771c.146-.24.21-.483.25-.693.035-.189.06-.412.083-.64l.822-7.664c.078-.73.142-1.331.16-1.823.018-.507-.008-.98-.156-1.442a4 4 0 0 0-2.187-2.434c-.443-.196-.91-.272-1.417-.308C18.375 6 17.77 6 17.036 6Zm-2.508 2.172c.138-.062.343-.114.747-.142C15.687 8 16.22 8 17 8c.78 0 1.313 0 1.725.03.404.028.609.08.747.142a2 2 0 0 1 1.094 1.217c.046.144.076.353.061.758-.015.413-.07.942-.154 1.718l-.814 7.599a7.754 7.754 0 0 1-.064.515l-.002.011-.011.001c-.105.008-.25.009-.52.009h-4.124c-.27 0-.415 0-.52-.009h-.01l-.003-.012a7.825 7.825 0 0 1-.064-.515l-.814-7.599c-.083-.776-.14-1.305-.154-1.718-.015-.405.015-.614.061-.758a2 2 0 0 1 1.094-1.217ZM5.958 12h.084c.242 0 .42 0 .578.012a4 4 0 0 1 3.686 3.924c.003.158-.008.336-.023.578l-.193 3.079c-.015.237-.03.47-.057.667a2.018 2.018 0 0 1-.232.725 2 2 0 0 1-.866.814 2.016 2.016 0 0 1-.737.185c-.199.016-.432.016-.67.016H4.473c-.238 0-.472 0-.67-.016a2.016 2.016 0 0 1-.738-.185 2 2 0 0 1-.866-.814 2.017 2.017 0 0 1-.231-.725 8.922 8.922 0 0 1-.058-.667l-.192-3.08c-.015-.24-.027-.42-.024-.577a4 4 0 0 1 3.686-3.924C5.537 12 5.716 12 5.958 12ZM6 14c-.302 0-.395 0-.463.006a2 2 0 0 0-1.843 1.962c-.001.069.004.161.022.463l.188 3.006c.018.28.028.432.044.54l.001.013h.012c.11.01.262.01.542.01h2.994c.28 0 .433 0 .542-.01h.012l.002-.012c.015-.109.025-.26.043-.54l.188-3.007c.019-.302.024-.395.022-.463a2 2 0 0 0-1.843-1.962A7.188 7.188 0 0 0 6 14Z" clip-rule="evenodd"/><path fill="#C8C8D1" d="M6.4 11h-.8c-.56 0-.84 0-1.054-.109a1 1 0 0 1-.437-.437C4 10.24 4 9.96 4 9.4V7.726c0-.267 0-.4.033-.525a1 1 0 0 1 .14-.309c.072-.106.172-.194.373-.37l.8-.7c.843-.738 1.265-1.106 1.622-1.118a1 1 0 0 1 .805.366C8 5.346 8 5.906 8 7.026V9.4c0 .56 0 .84-.109 1.054a1 1 0 0 1-.437.437C7.24 11 6.96 11 6.4 11Z"/></svg>