<svg xmlns="http://www.w3.org/2000/svg" width="24" height="24" fill="none"><path fill="#C8C8D1" fill-rule="evenodd" d="M5.568 1h6.673c.805 0 1.47 0 2.01.044.563.046 1.08.145 1.565.392.301.154.58.344.831.565L16.694 2h.043c.242 0 .422 0 .583.013a4 4 0 0 1 3.667 3.667c.013.16.013.34.013.584v9.977c0 .805 0 1.47-.044 2.01-.046.563-.145 1.08-.392 1.565a4 4 0 0 1-1.748 1.748c-.485.247-1.002.346-1.564.392-.541.044-1.206.044-2.01.044H8.758c-.805 0-1.47 0-2.01-.044-.563-.046-1.08-.145-1.565-.392a4 4 0 0 1-1.748-1.748 3.696 3.696 0 0 1-.354-1.212 4.432 4.432 0 0 1-.051-.409C3 17.82 3 17.365 3 16.838V3.569c0-.252 0-.498.017-.706.019-.229.063-.499.201-.77a2 2 0 0 1 .874-.874c.271-.138.541-.182.77-.201C5.07 1 5.316 1 5.568 1ZM5 16.2c0 .857 0 1.439.038 1.889.006.074.012.142.02.204a.612.612 0 0 0 .051.161 1 1 0 0 0 .437.437c.05.025.15.063.422.085C6.25 19 6.623 19 7.2 19h5c.857 0 1.439 0 1.889-.038.438-.035.663-.1.819-.18a2 2 0 0 0 .874-.874c.08-.156.145-.38.18-.819.037-.45.038-1.032.038-1.889V6.8c0-.857 0-1.439-.037-1.889-.036-.438-.101-.663-.181-.819a2 2 0 0 0-.874-.874c-.156-.08-.38-.145-.819-.18C13.639 3 13.057 3 12.2 3H5.6a8.186 8.186 0 0 0-.589.011v.014C5 3.14 5 3.303 5 3.6v12.6Zm11.661 3.786c.156-.005.298-.013.428-.024.438-.035.663-.1.819-.18a2 2 0 0 0 .874-.874c.08-.156.145-.38.18-.819.037-.45.038-1.032.038-1.889V6.306c0-.304 0-.396-.006-.466A2 2 0 0 0 17.89 4.21c.03.175.05.355.066.54.044.54.044 1.205.044 2.01v8.482c0 .805 0 1.47-.044 2.01-.046.563-.145 1.08-.392 1.565a4 4 0 0 1-.903 1.17ZM7 7a1 1 0 0 1 1-1h5a1 1 0 1 1 0 2H8a1 1 0 0 1-1-1Zm0 4a1 1 0 0 1 1-1h3a1 1 0 1 1 0 2H8a1 1 0 0 1-1-1Z" clip-rule="evenodd"/></svg>