<svg xmlns="http://www.w3.org/2000/svg" width="12" height="12" fill="none"><path fill="#F44" fill-rule="evenodd" d="m1.522 9.147-.74-.477a1.71 1.71 0 0 1-.53-2.33l.48-.785c.197-.322.282-.7.24-1.076L.875 3.57a1.71 1.71 0 0 1 1.501-1.883l.816-.095a1.71 1.71 0 0 0 1.022-.502L4.78.513a1.71 1.71 0 0 1 2.442 0l.566.577a1.71 1.71 0 0 0 1.022.502l.816.095a1.71 1.71 0 0 1 1.5 1.883l-.098.909c-.04.375.044.754.241 1.076l.48.786a1.71 1.71 0 0 1-.53 2.329l-.74.477a1.71 1.71 0 0 0-.69.88l-.28.818a1.71 1.71 0 0 1-2.19 1.055l-.744-.265a1.71 1.71 0 0 0-1.148 0l-.743.265a1.71 1.71 0 0 1-2.19-1.055l-.282-.817a1.71 1.71 0 0 0-.69-.881ZM8.398 4.69a.572.572 0 0 0-.807-.808l-3.995 4a.572.572 0 0 0 .807.81L8.398 4.69ZM6.853 7.716c0-.474.384-.858.856-.858h.006a.857.857 0 0 1 0 1.715H7.71a.857.857 0 0 1-.856-.857ZM4.285 4a.857.857 0 0 0 0 1.715h.006A.857.857 0 0 0 4.29 4h-.006Z" clip-rule="evenodd"/></svg>