<svg xmlns="http://www.w3.org/2000/svg" width="24" height="24" fill="none"><path fill="#C8C8D1" fill-rule="evenodd" d="M10 12.5a4.5 4.5 0 1 1 9 0 4.5 4.5 0 0 1-9 0Zm4.5-2.5a2.5 2.5 0 1 0 0 5 2.5 2.5 0 0 0 0-5Z" clip-rule="evenodd"/><path fill="#C8C8D1" d="M5.5 9.5a1 1 0 0 0 0 2h2a1 1 0 1 0 0-2h-2Z"/><path fill="#C8C8D1" fill-rule="evenodd" d="M3.568 4h13.673c.805 0 1.47 0 2.01.044.563.046 1.08.145 1.565.392a4 4 0 0 1 1.748 1.748c.247.485.346 1.002.392 1.564C23 8.29 23 8.954 23 9.758v5.483c0 .805 0 1.47-.044 2.01-.046.563-.145 1.08-.392 1.565a4 4 0 0 1-1.748 1.748c-.485.247-1.002.346-1.564.392-.541.044-1.206.044-2.01.044H3.567c-.252 0-.498 0-.706-.017a2.022 2.022 0 0 1-.77-.201 2 2 0 0 1-.874-.874 2.022 2.022 0 0 1-.201-.77C1 18.93 1 18.684 1 18.432V6.568c0-.252 0-.498.017-.706.019-.229.063-.499.201-.77a2 2 0 0 1 .874-.874c.271-.138.541-.182.77-.201C3.07 4 3.316 4 3.568 4Zm-.557 2.011v.014C3 6.14 3 6.303 3 6.6v11.8c0 .297 0 .459.01.575l.001.014h.014c.116.01.278.011.575.011h13.6c.857 0 1.439 0 1.889-.038.438-.035.663-.1.819-.18a2 2 0 0 0 .874-.874c.08-.156.145-.38.18-.819.037-.45.038-1.032.038-1.889V9.8c0-.857 0-1.439-.038-1.889-.035-.438-.1-.663-.18-.819a2 2 0 0 0-.874-.874c-.156-.08-.38-.145-.819-.18C18.639 6 18.057 6 17.2 6H3.6c-.297 0-.459 0-.575.01l-.014.001Z" clip-rule="evenodd"/></svg>