<svg width="22" height="22" fill="none" xmlns="http://www.w3.org/2000/svg"><circle cx="11" cy="11" r="11" fill="#0052B4"/><g clip-path="url(#a)"><path d="M21.424 14.52H.575c.05.148.103.295.16.44h20.53c.056-.145.11-.292.16-.44ZM21.265 7.04H.735c-.057.145-.11.292-.16.44h20.85c-.05-.148-.104-.295-.16-.44Z" fill="#CD2028"/><path d="M11 0C6.32 0 2.324 2.922.734 7.04h20.531C19.675 2.922 15.68 0 11 0Z" fill="#0098B4"/><path d="M22 11a10.988 10.988 0 0 0-.575-3.52H.575a11.056 11.056 0 0 0 0 7.04h20.85c.382-1.134.576-2.323.575-3.52Z" fill="#fff"/><path d="M21.265 14.96H.735C2.324 19.078 6.32 22 11 22s8.675-2.922 10.265-7.04Z" fill="#28B24B"/><path d="M11.912 3.851c-.03.092-.06.177-.084.265-.01.034-.027.04-.059.04-.09-.002-.18 0-.283 0 .082.06.154.115.23.165.029.02.034.039.022.071-.03.086-.057.172-.087.267l.237-.174c.02-.015.032-.014.051 0 .075.057.151.111.236.173l-.034-.11c-.018-.054-.034-.11-.055-.165-.01-.026-.004-.04.018-.056.07-.048.137-.099.205-.149l.027-.022c-.1 0-.192-.002-.284 0-.03.001-.043-.008-.052-.038-.024-.081-.051-.16-.077-.241l-.011-.026ZM11.486 5.952c.073.054.145.109.22.16.027.018.031.035.02.065-.03.086-.057.174-.088.27.082-.06.159-.114.233-.171.023-.018.039-.016.061.001.063.048.128.094.192.14l.037.025-.064-.201c-.034-.104-.034-.104.053-.168l.163-.12.004-.008h-.245c-.071 0-.071 0-.094-.071l-.077-.239c-.032.098-.062.186-.088.274-.008.028-.02.037-.05.037-.09-.002-.182-.001-.273-.001l-.004.007ZM11.649 2.87c.083-.06.159-.114.233-.17.022-.017.036-.017.058 0 .075.056.15.11.233.17-.03-.095-.057-.183-.088-.27-.01-.03-.006-.045.02-.063.073-.05.145-.105.225-.164l-.04-.003h-.245c-.027.001-.038-.01-.045-.033l-.08-.253a.17.17 0 0 0-.01-.02c-.03.088-.06.171-.082.256-.012.043-.032.052-.072.05-.087-.002-.173 0-.27 0 .08.058.15.111.223.16.033.023.039.043.025.08-.031.083-.056.168-.085.26ZM14.108 4.156h-.276c-.028 0-.041-.006-.05-.035-.026-.089-.056-.176-.088-.272-.03.095-.06.182-.087.27-.008.029-.022.038-.052.037-.092-.002-.184 0-.287 0l.264.193-.1.31c.082-.06.157-.114.23-.17.024-.018.04-.018.065 0 .073.056.147.11.23.17-.032-.097-.059-.186-.089-.273-.01-.028-.005-.044.02-.061.075-.053.15-.108.223-.162 0-.003-.002-.005-.003-.007ZM13.53 6.137l-.1.309.194-.142c.067-.05.067-.05.136.001l.194.14c-.03-.09-.054-.174-.084-.255-.015-.04-.008-.063.027-.087.072-.048.14-.1.22-.158h-.286c-.03.001-.043-.009-.052-.038-.026-.087-.056-.173-.087-.27l-.076.23c-.024.078-.024.078-.105.078h-.243l.261.192ZM13.43 2.87c.083-.06.16-.114.233-.17.022-.017.037-.017.058 0 .075.056.151.11.233.17-.03-.095-.057-.183-.088-.27-.01-.03-.006-.045.02-.063.074-.05.145-.105.225-.164l-.04-.003h-.245c-.026.001-.038-.01-.045-.033l-.08-.253a.209.209 0 0 0-.01-.02c-.029.088-.06.171-.082.256-.011.043-.032.052-.072.05-.086-.002-.173 0-.27 0 .08.058.15.111.223.16.033.023.039.043.025.08-.03.083-.055.168-.085.26ZM15.908 4.156h-.276c-.028 0-.041-.006-.05-.035-.026-.089-.056-.176-.088-.272-.031.095-.06.182-.087.27-.009.029-.022.038-.053.037-.091-.002-.183 0-.287 0l.264.193-.1.31c.083-.06.158-.114.23-.17.025-.018.041-.018.066 0 .072.056.147.11.23.17-.032-.097-.059-.186-.089-.273-.01-.028-.005-.044.02-.061.075-.053.149-.108.223-.162l-.003-.007ZM15.329 6.137l-.1.309c.07-.051.133-.096.194-.142.068-.05.068-.05.137.001l.194.14c-.03-.09-.054-.174-.084-.255-.016-.04-.009-.063.027-.087.072-.048.14-.1.22-.158h-.287c-.03.001-.042-.009-.051-.038-.026-.087-.056-.173-.087-.27l-.076.23c-.025.078-.024.078-.105.078h-.244l.262.192ZM15.23 2.87c.083-.06.159-.114.233-.17.022-.017.037-.017.058 0 .075.056.15.11.233.17-.03-.095-.057-.183-.088-.27-.01-.03-.006-.045.02-.063.073-.05.145-.105.225-.164l-.04-.003h-.245c-.027.001-.038-.01-.045-.033l-.08-.253a.188.188 0 0 0-.01-.02c-.029.088-.06.171-.082.256-.012.043-.032.052-.072.05-.086-.002-.173 0-.27 0 .08.058.15.111.223.16.033.023.039.043.025.08-.03.083-.055.168-.085.26ZM9.705 5.952c.073.054.145.109.22.16.027.018.03.035.02.065-.03.086-.057.174-.088.27.082-.06.158-.114.232-.171.024-.018.04-.016.062.001.063.048.127.094.191.14l.038.025-.064-.201c-.034-.104-.034-.104.053-.168l.163-.12.003-.008h-.244c-.072 0-.072 0-.094-.071l-.078-.239-.087.274c-.009.028-.021.037-.05.037-.09-.002-.182-.001-.273-.001l-.004.007ZM7.924 5.952c.073.054.145.109.22.16.027.018.03.035.02.065-.03.086-.058.174-.089.27.083-.06.159-.114.233-.171.024-.018.04-.016.061.001.063.048.128.094.192.14l.038.025-.064-.201c-.034-.104-.035-.104.053-.168l.163-.12.003-.008H8.51c-.072 0-.072 0-.095-.071l-.077-.239c-.031.098-.061.186-.088.274-.008.028-.02.037-.05.037-.09-.002-.181-.001-.272-.001l-.004.007ZM9.705 4.168c.073.054.145.109.22.16.027.018.03.035.02.065-.03.087-.057.174-.088.27.082-.06.158-.114.232-.171.024-.018.04-.016.062.001.063.048.127.094.191.14l.038.025-.064-.201c-.034-.104-.034-.104.053-.168l.163-.12.003-.008h-.244c-.072 0-.072 0-.094-.07l-.078-.24-.087.274c-.009.028-.021.037-.05.037-.09-.002-.182 0-.273 0l-.004.006ZM7.352 6.495a2.249 2.249 0 0 1-1.833-2.087 2.244 2.244 0 0 1 1.83-2.317c-.682-.124-1.6.113-2.167.916a2.225 2.225 0 0 0 .017 2.595 2.216 2.216 0 0 0 2.153.893Z" fill="#fff"/></g><defs><clipPath id="a"><path fill="#fff" d="M0 0h22v22H0z"/></clipPath></defs></svg>