<svg width="20" height="20" fill="none" xmlns="http://www.w3.org/2000/svg"><circle cx="10" cy="10" r="10" fill="#ED192D"/><path d="M10.371 5.284c.01-.819.737-1.383.768-2.475.52.655-.34 1.88-.034 2.591.138-.808.943-1.25 1.145-2.324.412.727-.63 1.804-.44 2.554.264-.776 1.128-1.089 1.495-2.117.294.783-.904 1.683-.833 2.454.381-.725 1.284-.898 1.807-1.856.168.818-1.156 1.52-1.207 2.292.49-.656 1.41-.686 2.076-1.55.037.835-1.38 1.32-1.55 2.075.586-.572 1.498-.457 2.292-1.207-.094.83-1.57 1.088-1.856 1.808.669-.473 1.551-.218 2.453-.834-.223.806-1.72.83-2.116 1.495.735-.362 1.566.029 2.553-.44-.346.761-1.83.55-2.324 1.146.783-.243 1.543.273 2.591-.035-.46.698-1.893.258-2.475.768.811-.117 1.482.511 2.565.372-.565.616-1.91-.042-2.565.372.82.009 1.383.735 2.475.766-.654.522-1.88-.34-2.591-.034.808.138 1.25.944 2.324 1.145-.727.413-1.803-.63-2.554-.439.776.263 1.088 1.127 2.117 1.495-.783.293-1.683-.904-2.453-.833.725.38.897 1.284 1.856 1.807-.82.167-1.52-1.156-2.293-1.207.657.49.686 1.409 1.551 2.076-.835.037-1.32-1.38-2.076-1.552.572.588.457 1.5 1.207 2.294-.83-.094-1.089-1.57-1.807-1.856.473.668.217 1.551.833 2.453-.806-.223-.83-1.722-1.495-2.116.363.734-.028 1.566.44 2.552-.761-.345-.55-1.829-1.146-2.323.243.783-.273 1.542.035 2.59-.698-.46-.258-1.892-.768-2.474.117.81-.511 1.481-.371 2.564-.617-.565.042-1.91-.372-2.564-.01.82-.736 1.383-.767 2.474-.521-.653.34-1.88.034-2.591-.138.808-.944 1.25-1.145 2.324-.412-.727.63-1.803.44-2.552-.264.775-1.129 1.087-1.495 2.116-.294-.784.904-1.683.833-2.454-.382.725-1.284.897-1.808 1.857-.167-.82 1.157-1.52 1.207-2.294-.49.657-1.409.686-2.075 1.552-.037-.836 1.38-1.32 1.55-2.076-.587.571-1.498.457-2.292 1.207.094-.832 1.57-1.09 1.856-1.807-.67.472-1.552.216-2.453.833.223-.806 1.72-.83 2.116-1.495-.735.363-1.567-.03-2.553.439.346-.761 1.829-.55 2.324-1.145-.783.243-1.543-.274-2.591.034.46-.697 1.893-.258 2.475-.768-.811.118-1.482-.511-2.565-.37.565-.618 1.91.041 2.565-.372-.82-.01-1.383-.737-2.475-.768.654-.52 1.88.34 2.59.035-.807-.14-1.25-.944-2.323-1.146.727-.412 1.803.63 2.553.44-.776-.264-1.087-1.128-2.116-1.495.783-.294 1.683.905 2.453.834-.725-.383-.897-1.285-1.856-1.808.819-.168 1.52 1.157 2.293 1.207-.657-.49-.686-1.41-1.551-2.075.835-.038 1.32 1.38 2.076 1.55-.572-.587-.457-1.5-1.207-2.292.83.094 1.088 1.568 1.807 1.856-.473-.67-.217-1.552-.833-2.454.806.223.83 1.72 1.495 2.117-.363-.736.028-1.568-.44-2.554.761.346.55 1.83 1.146 2.324-.243-.782.273-1.543-.035-2.591.698.462.258 1.893.768 2.475-.118-.811.511-1.48.37-2.565.618.565-.04 1.911.372 2.565z" fill="#FDE012"/><path d="M10 13.847a3.846 3.846 0 100-7.693 3.846 3.846 0 000 7.693z" fill="#ED192D"/><path d="M9.999 6.646c.981 0 1.864.42 2.477 1.092-.963.097-1.78.323-2.477.67-.697-.347-1.515-.573-2.478-.67a3.343 3.343 0 012.478-1.092zM9.745 8.544a4.549 4.549 0 00-.227.135c-.626-.333-1.375-.546-2.264-.61.04-.057.083-.112.127-.167.924.082 1.705.303 2.364.642zM10.255 8.544c.077.043.153.088.227.135.626-.333 1.375-.546 2.264-.61a3.35 3.35 0 00-.127-.167c-.924.082-1.705.303-2.364.642zM7.14 8.241c-.035.058-.07.117-.101.177.828.02 1.523.21 2.094.525.06-.045.12-.088.182-.131-.596-.325-1.317-.528-2.175-.57zM7.097 11.687A3.344 3.344 0 016.643 10c0-.502.109-.975.305-1.402.801-.005 1.472.17 2.02.474-.811.664-1.41 1.548-1.87 2.615zM8.79 13.13a3.189 3.189 0 01-.435-.205c.08-1.26.492-2.462 1.314-3.332.06.059.12.119.176.182-.765.894-1.096 2.122-1.054 3.355zM12.857 8.241c.035.058.07.117.101.177-.828.02-1.523.21-2.094.525a4.955 4.955 0 00-.182-.131c.596-.325 1.317-.528 2.175-.57zM12.901 11.687A3.344 3.344 0 0013.355 10c0-.502-.108-.975-.305-1.402-.8-.005-1.472.17-2.02.474.812.664 1.411 1.548 1.871 2.615z" fill="#FDE012"/><path d="M10 9.961c.689.891.947 2.109.815 3.294a3.336 3.336 0 01-1.63 0c-.132-1.185.126-2.403.815-3.294z" fill="#FDE012"/><path d="M11.21 13.13c.151-.058.296-.126.436-.205-.08-1.26-.492-2.462-1.314-3.332-.06.059-.12.119-.176.182.765.894 1.096 2.122 1.054 3.355zM9.47 9.413a4.143 4.143 0 00-.23-.173c-.85.754-1.41 1.778-1.766 2.967.131.15.276.287.432.412.22-1.25.712-2.38 1.565-3.206z" fill="#FDE012"/><path d="M10.53 9.413c.072-.058.152-.12.23-.173.851.754 1.412 1.778 1.766 2.967-.13.15-.276.287-.431.412-.22-1.25-.712-2.38-1.565-3.206zM9.999 8.685l.224.141a6.308 6.308 0 00-.224.15 6.251 6.251 0 00-.224-.15c.037-.024.182-.115.224-.14zM9.575 8.966a3.972 3.972 0 00-.177.138c.082.054.192.137.228.165.042-.037.127-.113.175-.147a4.55 4.55 0 00-.226-.156zM10.424 8.966c.056.043.143.109.177.138a3.71 3.71 0 00-.228.165c-.043-.037-.128-.113-.176-.147.058-.042.182-.13.227-.156zM10 9.28c.036.03.145.127.174.157-.052.044-.132.12-.175.168a2.263 2.263 0 00-.174-.168c.029-.03.138-.126.174-.157z" fill="#FDE012"/></svg>