<svg xmlns="http://www.w3.org/2000/svg" width="24" height="24" fill="none"><path fill="#C8C8D1" d="M8 3a1 1 0 0 1 1-1h6a1 1 0 0 1 0 2H9a1 1 0 0 1-1-1Z"/><path fill="#C8C8D1" fill-rule="evenodd" d="M10.92 5h2.16c.83 0 1.513 0 2.07.046.576.048 1.106.15 1.6.408a4 4 0 0 1 1.754 1.814c.241.502.326 1.035.355 1.613.027.557.004 1.24-.023 2.07l-.286 8.567c-.008.244-.016.483-.04.686a2.02 2.02 0 0 1-.217.745 2 2 0 0 1-.87.842 2.02 2.02 0 0 1-.752.193c-.203.016-.443.016-.687.016H8.016c-.244 0-.483 0-.686-.016a2.02 2.02 0 0 1-.753-.193 2 2 0 0 1-.87-.842 2.02 2.02 0 0 1-.218-.745c-.023-.203-.03-.442-.039-.686l-.285-8.567c-.028-.83-.05-1.513-.023-2.07.028-.578.113-1.11.354-1.613A4 4 0 0 1 7.25 5.454c.494-.258 1.024-.36 1.6-.408C9.408 5 10.09 5 10.92 5ZM9.017 7.04c-.452.037-.682.105-.84.187a2 2 0 0 0-.877.907c-.077.16-.138.392-.16.845-.023.465-.004 1.066.026 1.948l.048 1.448.865-.54a4.037 4.037 0 0 1 4.767.358c.711.61 1.747.655 2.51.11l1.47-1.05.01-.326c.03-.882.049-1.483.026-1.948-.022-.453-.083-.684-.16-.845a2 2 0 0 0-.877-.907c-.158-.082-.387-.15-.84-.188C14.521 7.001 13.92 7 13.037 7h-2.074c-.883 0-1.484 0-1.947.04Zm7.725 6.732-.224.16a4.037 4.037 0 0 1-4.974-.22 2.037 2.037 0 0 0-2.405-.181L7.29 14.685l.158 4.735c.01.288.016.444.028.557l.002.012.012.001c.113.01.27.01.558.01h7.905c.287 0 .444 0 .557-.01h.012l.002-.013c.013-.113.019-.27.028-.557l.189-5.648Z" clip-rule="evenodd"/></svg>