<svg xmlns="http://www.w3.org/2000/svg" width="24" height="24" fill="none"><path fill="#C8C8D1" d="M17.947 2.395a1 1 0 1 0-.894-1.79l-1.087.544a2 2 0 0 0-.875 2.72L16.686 6.9l-2.393 2.393a1 1 0 0 0 1.414 1.414l1.954-1.954L19.16 11.6a2 2 0 0 0 2.664.858l1.124-.562a1 1 0 1 0-.894-1.79l-1.124.563-.725-1.377 1.293-.646a1 1 0 1 0-.894-1.79l-1.33.666-.746-1.416 1.42-.71a1 1 0 1 0-.894-1.79l-1.458.73-.735-1.397 1.087-.543Z"/><path fill="#C8C8D1" fill-rule="evenodd" d="M11.636 7.278 10.164 8.75l6.25 6.25h3.172a2 2 0 0 1 1.414.586l.859.859a2.2 2.2 0 0 1 0 3.11l-2.303 2.304a2.2 2.2 0 0 1-3.112 0L15.586 21A2 2 0 0 1 15 19.586v-3.171l-6.25-6.25-1.472 1.472a1.1 1.1 0 0 1-1.556 0l-2.63-2.63A5.437 5.437 0 0 1 1.5 5.162 3.662 3.662 0 0 1 5.162 1.5c1.442 0 2.825.573 3.845 1.593l2.63 2.63a1.1 1.1 0 0 1 0 1.555ZM9.586 6.5 7.592 4.507A3.437 3.437 0 0 0 5.162 3.5c-.918 0-1.662.744-1.662 1.662 0 .912.362 1.786 1.007 2.43L6.5 9.587 9.586 6.5ZM17 17v2.586l.859.859a.2.2 0 0 0 .282 0l2.303-2.303a.2.2 0 0 0 0-.283L19.586 17H17Z" clip-rule="evenodd"/><path fill="#C8C8D1" d="M3.293 21.707a1 1 0 0 1 0-1.414l6-6a1 1 0 0 1 1.414 1.414l-6 6a1 1 0 0 1-1.414 0Z"/></svg>