<svg xmlns="http://www.w3.org/2000/svg" width="10" height="11" fill="none"><path fill="#fff" d="M5.435 10.9h1.081c.651 0 .977 0 1.258-.11.248-.1.471-.26.65-.467.202-.236.322-.557.564-1.198L9.564 7.6c.326-.864.489-1.297.42-1.644a1.18 1.18 0 0 0-.472-.741c-.279-.196-.718-.196-1.596-.196h-.928c-.291 0-.437 0-.51-.058a.288.288 0 0 1-.111-.212c-.008-.096.072-.234.232-.508.472-.808.885-1.738 1.066-2.547C7.762 1.263 7.426.9 7.01.9a.79.79 0 0 0-.588.283c-.552.628-1.063.957-1.571 1.284-.505.325-1.006.648-1.54 1.26-.147.168-.22.252-.314.424-.07.126-.15.347-.181.49-.042.193-.042.36-.042.694v2.742c0 .988 0 1.482.181 1.86.16.332.414.602.727.771.356.192.822.192 1.754.192ZM1.11 3.842C.496 3.842 0 4.368 0 5.018v4.706c0 .65.497 1.176 1.11 1.176.612 0 1.108-.526 1.108-1.176V5.018c0-.65-.496-1.176-1.109-1.176Z"/></svg>