<svg xmlns="http://www.w3.org/2000/svg" width="24" height="24" fill="none"><path fill="#C8C8D1" fill-rule="evenodd" d="M12.97 7.343c.423-.762 1.538-1.747 2.91-2.156 1.295-.386 2.757-.248 4.078 1.092 1.532 1.643 1.295 4.081-.205 6.327a1 1 0 1 0 1.663 1.111c1.74-2.606 2.46-6.185-.006-8.815l-.008-.008-.009-.008c-1.914-1.95-4.18-2.184-6.085-1.615a7.61 7.61 0 0 0-3.32 2.063A7.716 7.716 0 0 0 8.73 3.307c-1.894-.582-4.156-.37-6.115 1.569l-.01.01C.113 7.424.851 11.117 2.58 13.71c.459.712 1.25 1.633 2.13 2.58a87.432 87.432 0 0 0 2.909 2.954 239.82 239.82 0 0 0 2.587 2.462s.99.914 1.043.961l.06.055.02.019a1 1 0 1 0 1.344-1.482h-.001l-.018-.017-.058-.053-.221-.202a153.726 153.726 0 0 1-3.36-3.175 85.452 85.452 0 0 1-2.841-2.885c-.879-.945-1.563-1.756-1.916-2.306l-.005-.007-.005-.008c-1.51-2.26-1.724-4.776-.218-6.314 1.366-1.35 2.832-1.468 4.115-1.073 1.36.417 2.463 1.403 2.892 2.142.43.742 1.514.736 1.933-.018Z" clip-rule="evenodd"/><path fill="#C8C8D1" d="M19 16a1 1 0 1 0-2 0v2h-2a1 1 0 1 0 0 2h2v2a1 1 0 1 0 2 0v-2h2a1 1 0 1 0 0-2h-2v-2Z"/></svg>