<svg xmlns="http://www.w3.org/2000/svg" width="24" height="24" fill="none"><path fill="#C8C8D1" fill-rule="evenodd" d="M9.5 4a1 1 0 1 0 0 2h.5v1H2.5a1 1 0 1 0 0 2h.574l.258 3.353-.277-.185a1 1 0 0 0-1.11 1.664l1.5 1c.027.018.054.034.081.049l.14 1.803c.057.748.104 1.367.183 1.87.083.526.21 1.005.468 1.45a4 4 0 0 0 1.728 1.6c.464.224.952.314 1.481.356.509.04 1.13.04 1.88.04h5.189c.75 0 1.37 0 1.879-.04.53-.042 1.017-.132 1.481-.355a3.999 3.999 0 0 0 1.728-1.6c.259-.446.386-.925.468-1.45.079-.504.127-1.123.184-1.87l.139-1.804c.027-.015.054-.031.08-.049l1.5-1a1 1 0 0 0-1.109-1.664l-.277.185L20.926 9h.574a1 1 0 1 0 0-2H14V6h.5a1 1 0 1 0 0-2h-5Zm9.42 5H5.08l.576 7.491c.062.797.104 1.337.17 1.754.063.404.137.612.222.757a2 2 0 0 0 .864.8c.151.073.364.132.772.164.42.033.962.034 1.761.034h5.11c.8 0 1.341 0 1.761-.034.409-.032.621-.09.773-.164a2 2 0 0 0 .864-.8c.084-.145.159-.353.222-.757.065-.417.108-.957.169-1.754l.576-7.49Z" clip-rule="evenodd"/></svg>