<svg xmlns="http://www.w3.org/2000/svg" width="24" height="24" fill="none"><path fill="#C8C8D1" fill-rule="evenodd" d="m14.605 14.85 3.558-2.103A5.775 5.775 0 0 0 15.225 2h-2.043c-.929 0-1.682.753-1.682 1.682V7.4c0 .297 0 .459-.01.575l-.001.014h-.014C11.36 8 11.197 8 10.9 8H6.564L2.148 4.239A1 1 0 0 0 .852 5.76l10.322 8.793-2.31 1.365a3.5 3.5 0 1 0 1.028 1.715l2.892-1.708 1.473 1.255a3.5 3.5 0 1 0 1.253-1.56l-.905-.771ZM19 7.775A3.775 3.775 0 0 0 15.225 4H13.5v3.432c0 .252 0 .498-.017.706a2.022 2.022 0 0 1-.201.77 2 2 0 0 1-.874.874 2.021 2.021 0 0 1-.77.201c-.208.017-.454.017-.706.017h-2.02l4.083 3.478 4.15-2.453A3.775 3.775 0 0 0 19 7.775ZM16 18.5a1.5 1.5 0 1 1 3 0 1.5 1.5 0 0 1-3 0ZM6.5 17a1.5 1.5 0 1 0 0 3 1.5 1.5 0 0 0 0-3Z" clip-rule="evenodd"/></svg>