<svg xmlns="http://www.w3.org/2000/svg" width="24" height="24" fill="none"><path fill="#C8C8D1" fill-rule="evenodd" d="M5.53 8.618C5.84 4.736 8.603 2 12 2s6.16 2.736 6.471 6.618A1 1 0 0 1 19 9.5V12a1 1 0 0 1-1 1c-.318 1.152-.805 2.316-1.509 3.369l.324 2.266a1 1 0 0 0 .674.807l4.827 1.61a1 1 0 0 1-.632 1.897l-4.828-1.61a3 3 0 0 1-2.02-2.421l-.087-.603c-.08.067-.162.132-.246.196l-.021.016a2.354 2.354 0 0 1-.41.267 2.11 2.11 0 0 1-.495.168c-.197.039-.381.038-.526.038h-2.103c-.144 0-.328 0-.523-.038a2.1 2.1 0 0 1-.491-.165 2.373 2.373 0 0 1-.412-.265l-.022-.017a8.888 8.888 0 0 1-.25-.197l-.085.6a3 3 0 0 1-2.021 2.422l-4.828 1.609a1 1 0 0 1-.632-1.898l4.827-1.609a1 1 0 0 0 .674-.807l.317-2.223c-.725-1.056-1.22-2.228-1.535-3.413A1 1 0 0 1 5 12V9.5a1 1 0 0 1 .53-.882ZM12 4C9.683 4 7.5 5.995 7.5 9.35c0 2.745.867 5.794 3.21 7.572l.072.055.03.021.061.002h2.254l.06-.002.028-.02.07-.054c2.343-1.797 3.215-5.091 3.215-7.573C16.5 5.995 14.317 4 12 4Z" clip-rule="evenodd"/></svg>