<svg xmlns="http://www.w3.org/2000/svg" width="24" height="24" fill="none"><path fill="#C8C8D1" fill-rule="evenodd" d="M15.333 3a1.857 1.857 0 0 0-1.228 3.25c.457.404.52 1.14.051 1.607l-6.3 6.3a1.103 1.103 0 0 1-1.606-.052 1.857 1.857 0 1 0-.763 2.976c.482-.174.922.02 1.168.265.245.245.438.685.264 1.167a1.857 1.857 0 1 0 2.953-.783 1.103 1.103 0 0 1-.065-1.618l6.305-6.305a1.103 1.103 0 0 1 1.618.065 1.857 1.857 0 1 0 .783-2.953 1.116 1.116 0 0 1-1.167-.265 1.116 1.116 0 0 1-.265-1.167A1.857 1.857 0 0 0 15.333 3Zm-3.857 1.857a3.857 3.857 0 0 1 7.714-.047 3.857 3.857 0 1 1-2.265 7.013l-5.102 5.102A3.857 3.857 0 1 1 4.81 19.19a3.857 3.857 0 1 1 2.225-7.04l5.115-5.115a3.842 3.842 0 0 1-.674-2.178Z" clip-rule="evenodd"/></svg>