<svg xmlns="http://www.w3.org/2000/svg" width="24" height="24" fill="none"><path fill="#C8C8D1" fill-rule="evenodd" d="M11.726 1.058a1.1 1.1 0 0 1 .956.201l.002.002 2.268 1.654 2.807-.005h.003c.013 0 .065 0 .116.003a1.1 1.1 0 0 1 .948.689c.019.047.035.096.039.11v.002l.863 2.671 2.274 1.646a1.1 1.1 0 0 1 .456 1.186c-.013.054-.03.108-.033.114L21.552 12l.873 2.668c.002.007.02.06.034.114a1.099 1.099 0 0 1-.455 1.185l-.002.002-2.274 1.646-.863 2.671v.003c-.004.012-.02.062-.04.11a1.103 1.103 0 0 1-.616.614 1.1 1.1 0 0 1-.33.074c-.052.003-.104.003-.117.003h-.003l-2.807-.006-2.268 1.655-.002.002c-.011.008-.053.038-.096.065a1.1 1.1 0 0 1-.86.135 1.1 1.1 0 0 1-.312-.135c-.043-.027-.085-.058-.095-.066l-.003-.001-2.268-1.655-2.807.006h-.003c-.013 0-.065 0-.116-.003a1.1 1.1 0 0 1-.986-.798l-.001-.003-.863-2.672-2.274-1.645-.002-.002c-.011-.008-.053-.038-.092-.07a1.1 1.1 0 0 1-.362-1.115c.012-.05.028-.098.033-.111v-.003L2.448 12 1.575 9.33V9.33a1.1 1.1 0 0 1 .329-1.226c.039-.032.08-.063.092-.07l.002-.002 2.274-1.646.863-2.671V3.71a1.099 1.099 0 0 1 1.103-.801h.003l2.807.005 2.268-1.654.002-.002a1.1 1.1 0 0 1 .407-.2ZM12 3.238l-1.995 1.455a1.097 1.097 0 0 1-.626.222h-.06l-2.47-.004-.758 2.35c-.002.006-.01.032-.02.057a1.098 1.098 0 0 1-.355.49l-.048.036-2.001 1.448.767 2.347.018.058a1.1 1.1 0 0 1 0 .606l-.017.057-.768 2.348 2 1.447.049.036a1.1 1.1 0 0 1 .356.49l.02.058.758 2.35 2.47-.005h.06a1.093 1.093 0 0 1 .624.222h.001L12 20.763l1.995-1.455h.001l.048-.035a1.096 1.096 0 0 1 .577-.187l.059-.001h.001l2.47.005.758-2.35c.002-.006.01-.032.02-.057a1.102 1.102 0 0 1 .404-.527l2-1.447-.767-2.348-.018-.057a1.084 1.084 0 0 1 0-.606l.018-.058.768-2.347-2.001-1.447a1.088 1.088 0 0 1-.404-.526l-.02-.057-.759-2.35-2.469.004-.06-.001a1.098 1.098 0 0 1-.625-.221L12 3.238Z" clip-rule="evenodd"/><path fill="#C8C8D1" fill-rule="evenodd" d="M16.207 7.793a1 1 0 0 1 0 1.414l-7 7a1 1 0 0 1-1.414-1.414l7-7a1 1 0 0 1 1.414 0ZM13.5 14.5A1.5 1.5 0 0 1 15 13h.01a1.5 1.5 0 0 1 0 3H15a1.5 1.5 0 0 1-1.5-1.5ZM7.5 9.5A1.5 1.5 0 0 1 9 8h.01a1.5 1.5 0 0 1 0 3H9a1.5 1.5 0 0 1-1.5-1.5Z" clip-rule="evenodd"/></svg>