<svg xmlns="http://www.w3.org/2000/svg" width="24" height="24" viewBox="0 0 24 24" fill="none">
    <path d="M11.2603 2.81302C11.657 2.37696 12.343 2.37696 12.7397 2.81302L13.5386 3.69115C13.8202 4.00067 14.2647 4.10213 14.6527 3.94545L15.7535 3.50091C16.3002 3.28017 16.9182 3.57778 17.0864 4.14279L17.4252 5.28059C17.5446 5.68164 17.9011 5.96592 18.3186 5.9931L19.5033 6.07022C20.0916 6.10851 20.5193 6.64478 20.4257 7.22683L20.2372 8.39896C20.1708 8.81209 20.3687 9.2229 20.7331 9.42856L21.767 10.012C22.2804 10.3018 22.433 10.9705 22.0962 11.4543L21.4178 12.4286C21.1787 12.772 21.1787 13.228 21.4178 13.5714L22.0962 14.5457C22.433 15.0295 22.2804 15.6982 21.767 15.988L20.7331 16.5714C20.3687 16.7771 20.1708 17.1879 20.2372 17.601L20.4257 18.7732C20.5193 19.3552 20.0916 19.8915 19.5033 19.9298L18.3186 20.0069C17.9011 20.0341 17.5446 20.3184 17.4252 20.7194L17.0864 21.8572C16.9182 22.4222 16.3002 22.7198 15.7535 22.4991L14.6527 22.0546C14.2647 21.8979 13.8202 21.9993 13.5386 22.3088L12.7397 23.187C12.343 23.623 11.657 23.623 11.2603 23.187L10.4614 22.3088C10.1798 21.9993 9.73528 21.8979 9.34727 22.0546L8.24647 22.4991C7.69983 22.7198 7.08184 22.4222 6.91361 21.8572L6.57481 20.7194C6.4554 20.3184 6.09891 20.0341 5.68135 20.0069L4.49668 19.9298C3.90841 19.8915 3.48074 19.3552 3.57432 18.7732L3.76275 17.601C3.82917 17.1879 3.63133 16.7771 3.26692 16.5714L2.23303 15.988C1.71962 15.6982 1.56699 15.0295 1.90384 14.5457L2.58218 13.5714C2.82127 13.228 2.82127 12.772 2.58218 12.4286L1.90384 11.4543C1.56699 10.9705 1.71962 10.3018 2.23303 10.012L3.26692 9.42856C3.63133 9.2229 3.82917 8.81209 3.76275 8.39896L3.57432 7.22683C3.48074 6.64478 3.90841 6.10851 4.49668 6.07022L5.68135 5.9931C6.09891 5.96592 6.4554 5.68164 6.57481 5.28059L6.91361 4.14279C7.08184 3.57778 7.69983 3.28017 8.24647 3.50091L9.34727 3.94545C9.73528 4.10213 10.1798 4.00067 10.4614 3.69115L11.2603 2.81302Z" fill="#FC9EFF"/>
    <path d="M9.13033 13.5611C8.49123 13.5611 7.97536 13.3636 7.58271 12.9688C7.19424 12.5739 7 12.0427 7 11.3752C7 10.6465 7.20677 10.0685 7.6203 9.64111C8.03801 9.2137 8.59357 9 9.28697 9C9.95113 9 10.4691 9.19335 10.8409 9.58005C11.2168 9.96676 11.4048 10.5102 11.4048 11.2103C11.4048 11.9308 11.198 12.5027 10.7845 12.9261C10.3709 13.3494 9.81955 13.5611 9.13033 13.5611ZM9.24937 10.0746C8.63952 10.0746 8.33459 10.4878 8.33459 11.3141C8.33459 12.0957 8.6249 12.4864 9.20551 12.4864C9.79866 12.4864 10.0952 12.0794 10.0952 11.2653C10.0952 10.4715 9.81328 10.0746 9.24937 10.0746ZM15.6905 9.12212L9.83835 17.8779H8.30952L14.1491 9.12212H15.6905ZM14.7256 18C14.0865 18 13.5706 17.8026 13.1779 17.4077C12.7895 17.0129 12.5952 16.4817 12.5952 15.8141C12.5952 15.0855 12.802 14.5075 13.2155 14.0801C13.6332 13.6526 14.1888 13.4389 14.8822 13.4389C15.5505 13.4389 16.0706 13.6303 16.4424 14.0129C16.8141 14.3955 17 14.9369 17 15.637C17 16.3575 16.7932 16.9315 16.3797 17.3589C15.9662 17.7863 15.4148 18 14.7256 18ZM14.8258 14.5136C14.2201 14.5136 13.9173 14.9267 13.9173 15.7531C13.9173 16.5346 14.2118 16.9254 14.8008 16.9254C15.3939 16.9254 15.6905 16.5183 15.6905 15.7042C15.6905 15.3256 15.6111 15.0326 15.4524 14.825C15.2937 14.6174 15.0848 14.5136 14.8258 14.5136Z" fill="#A344FA"/>
</svg>