<svg xmlns="http://www.w3.org/2000/svg" width="24" height="24" fill="none"><path fill="#C8C8D1" fill-rule="evenodd" d="M9.342 4.247a1 1 0 0 1 1.41.095l3.33 3.805.064.072.002.001.082.05 6.194 3.643c.587.344 1.028.604 1.382.952a4 4 0 0 1 1.074 1.878c.12.482.12.993.12 1.673v.136c0 .199 0 .392-.01.557a2.03 2.03 0 0 1-.126.617 2 2 0 0 1-1.138 1.138 2.03 2.03 0 0 1-.617.125c-.165.011-.358.011-.557.011H3.753c-.28 0-.548 0-.774-.02a2.03 2.03 0 0 1-.828-.23 2 2 0 0 1-.88-.983 2.031 2.031 0 0 1-.138-.848c.006-.227.036-.494.067-.772l.607-5.468c.03-.268.058-.524.1-.737.043-.229.118-.503.292-.764a2 2 0 0 1 1.27-.852c.307-.062.59-.027.818.02.212.042.46.113.719.187l.031.009c.646.185.836.234 1.016.247a2 2 0 0 0 .663-.061c.175-.047.352-.13.953-.43l2.704-1.353L9.247 5.66a1 1 0 0 1 .095-1.412Zm2.393 4.254-3.25 1.624c-.488.245-.857.43-1.254.535a4 4 0 0 1-1.328.124c-.409-.031-.806-.145-1.331-.295l-.084-.024a9.087 9.087 0 0 0-.597-.16l-.017-.002-.004.017c-.024.125-.044.3-.079.612l-.6 5.402a8.736 8.736 0 0 0-.058.637v.016l.015.001c.13.011.313.012.64.012h16.74c.232 0 .36 0 .452-.006l.013-.001v-.013a8.2 8.2 0 0 0 .007-.453c0-.84-.007-1.087-.06-1.298a2 2 0 0 0-.537-.939c-.155-.152-.364-.283-1.088-.71l-.933-.548-1.175 1.175a1 1 0 0 1-1.414-1.414l.808-.808-1.682-.99-1.712 1.712a1 1 0 0 1-1.414-1.414l1.345-1.346a1.995 1.995 0 0 1-.548-.468l-.855-.978Z" clip-rule="evenodd"/><path fill="#C8C8D1" d="M2 20a1 1 0 1 0 0 2h20a1 1 0 1 0 0-2H2Z"/></svg>