<svg xmlns="http://www.w3.org/2000/svg" width="24" height="24" fill="none"><path fill="#C8C8D1" fill-rule="evenodd" d="M12 1C5.925 1 1 5.925 1 12s4.925 11 11 11 11-4.925 11-11S18.075 1 12 1ZM6.382 4.968A8.962 8.962 0 0 1 12.5 3.014a9.46 9.46 0 0 1-2.113 5.96L6.382 4.967Zm2.591 5.42L4.968 6.381A8.962 8.962 0 0 0 3.014 12.5a9.46 9.46 0 0 0 5.96-2.113ZM3.35 14.494a11.451 11.451 0 0 0 7.044-2.687l1.798 1.798a11.45 11.45 0 0 0-2.687 7.044 9.018 9.018 0 0 1-6.155-6.155Zm8.458-4.101a11.451 11.451 0 0 0 2.687-7.044 9.018 9.018 0 0 1 6.155 6.155 11.45 11.45 0 0 0-7.044 2.687l-1.798-1.798Zm3.219 3.219a9.46 9.46 0 0 1 5.96-2.113 8.962 8.962 0 0 1-1.954 6.118l-4.006-4.006Zm-1.414 1.414a9.46 9.46 0 0 0-2.113 5.96 8.962 8.962 0 0 0 6.118-1.954l-4.006-4.006Z" clip-rule="evenodd"/></svg>