<svg xmlns="http://www.w3.org/2000/svg" width="24" height="24" fill="none"><path fill="#C8C8D1" fill-rule="evenodd" d="M7.618 22.488c.29-.094.512-.254.687-.402.159-.135.333-.31.511-.488L21.598 8.816c.179-.178.353-.352.488-.511.148-.175.308-.397.402-.687a2 2 0 0 0 0-1.236 2.022 2.022 0 0 0-.402-.686 9.187 9.187 0 0 0-.488-.512l-2.782-2.782a9.175 9.175 0 0 0-.511-.488 2.021 2.021 0 0 0-.687-.402 2 2 0 0 0-1.236 0c-.29.094-.512.254-.686.402-.16.135-.333.31-.512.488L2.402 15.184c-.179.179-.353.352-.488.512a2.021 2.021 0 0 0-.402.686 2 2 0 0 0 0 1.236c.094.29.254.512.402.687.135.159.31.332.488.51l2.782 2.783c.179.179.352.353.512.488.174.148.396.308.686.402a2 2 0 0 0 1.236 0Zm-.194-2.326c-.21.21-.325.323-.414.4L7 20.57l-.01-.009a8.186 8.186 0 0 1-.414-.4l-2.737-2.737a8.187 8.187 0 0 1-.4-.414L3.43 17l.009-.01c.076-.09.19-.204.4-.414L5 15.414l.893.893a1 1 0 1 0 1.414-1.414L6.414 14 8 12.414l1.543 1.543a1 1 0 1 0 1.414-1.414L9.414 11 11 9.414l.793.793a1 1 0 1 0 1.414-1.414L12.414 8 14 6.414l.893.893a1 1 0 1 0 1.414-1.414L15.414 5l1.162-1.161c.21-.21.325-.324.414-.4L17 3.43l.01.009c.09.076.205.19.414.4l2.738 2.737c.21.21.323.325.4.414l.008.01-.009.01c-.076.09-.19.205-.4.414L7.425 20.162Z" clip-rule="evenodd"/><path fill="#C8C8D1" d="M4.317 3.817 4.913 6.5l1.294 1.294a1 1 0 0 1-1.414 1.414l-1.48-1.48a1.1 1.1 0 0 1-.295-.539l-.96-4.318A1.1 1.1 0 0 1 3.37 1.558l4.319.96a1.1 1.1 0 0 1 .539.296l1.48 1.479a1 1 0 1 1-1.415 1.414L6.999 4.413l-2.682-.596ZM19.707 14.293a1 1 0 0 0-1.414 1.414l1.75 1.75a1.475 1.475 0 0 1-2.086 2.086l-1.75-1.75a1 1 0 0 0-1.414 1.414l1.75 1.75a3.475 3.475 0 1 0 4.914-4.914l-1.75-1.75Z"/></svg>