<svg xmlns="http://www.w3.org/2000/svg" width="24" height="24" fill="none"><path fill="#C8C8D1" d="M13.242 15.97a1 1 0 1 0-.485-1.94l-4 1a1 1 0 1 0 .486 1.94l4-1Z"/><path fill="#C8C8D1" fill-rule="evenodd" d="M14.777 2c-4.24 0-7.04 4.41-5.235 8.248l.087.185-3.02.778a2 2 0 0 1-1.353-.128L2.57 9.813a1.1 1.1 0 0 0-1.57.995V13a9 9 0 0 0 9 9h4.463c3.4 0 6.156-2.756 6.156-6.156v-.57a5.647 5.647 0 0 0-.915-3.082l.122-1.038 2.343-.851a1.1 1.1 0 0 0 .287-1.912l-1.811-1.37A5.052 5.052 0 0 0 15.593 2h-.816ZM11.35 9.396C10.171 6.886 12.002 4 14.777 4h.816a3.05 3.05 0 0 1 3.034 3.372c-.038.363.116.72.407.94l.896.676-.787.287a2 2 0 0 0-1.303 1.646l-.146 1.236c-.042.358.05.72.258 1.015.434.615.667 1.35.667 2.102v.57A4.156 4.156 0 0 1 14.464 20H10a7 7 0 0 1-7-7v-.771l1.402.662a4 4 0 0 0 2.707.257l3.571-.92a1.528 1.528 0 0 0 1.001-2.13l-.33-.702Z" clip-rule="evenodd"/></svg>