<svg xmlns="http://www.w3.org/2000/svg" width="12" height="12" fill="none"><path fill="#4584FF" fill-rule="evenodd" d="M7.03.473a1.644 1.644 0 0 0-2.06 0l-.955.767a1.644 1.644 0 0 1-.672.324l-1.195.267A1.644 1.644 0 0 0 .863 3.443l.005 1.225c.001.251-.056.5-.166.726L.166 6.496a1.644 1.644 0 0 0 .459 2.01l.96.759c.198.156.357.355.465.583l.527 1.105a1.645 1.645 0 0 0 1.857.895l1.193-.278c.245-.057.5-.057.746 0l1.193.278a1.645 1.645 0 0 0 1.857-.895l.527-1.105c.108-.228.267-.427.465-.583l.96-.76c.606-.479.797-1.315.459-2.01l-.536-1.1a1.645 1.645 0 0 1-.166-.727l.005-1.225A1.644 1.644 0 0 0 9.852 1.83l-1.195-.267a1.644 1.644 0 0 1-.672-.324L7.031.473ZM8.95 4a.73.73 0 0 1 0 1.034L5.542 8.442a.73.73 0 0 1-1.035 0l-1.46-1.46A.731.731 0 1 1 4.08 5.947l.944.943 2.891-2.892A.73.73 0 0 1 8.95 4Z" clip-rule="evenodd"/></svg>