<svg xmlns="http://www.w3.org/2000/svg" width="24" height="24" fill="none"><path fill="#C8C8D1" fill-rule="evenodd" d="M5 9.563C5 5.117 8.174 2 12 2c3.809 0 6.97 3.088 7 7.5v10.353c0 .059-.005.117-.013.173l3.307 1.018a1 1 0 1 1-.588 1.912l-5.319-1.637a3 3 0 0 1-2.077-2.374l-.012-.077c-.137.097-.277.19-.42.279l-.019.011c-.091.056-.208.13-.364.193-.13.053-.288.098-.426.121-.168.028-.323.028-.445.028h-1.248c-.122 0-.277 0-.443-.027a2.097 2.097 0 0 1-.423-.12c-.155-.062-.273-.135-.365-.191l-.019-.012a8.856 8.856 0 0 1-.424-.278l-.012.073a3 3 0 0 1-2.077 2.374l-5.319 1.637a1 1 0 0 1-.588-1.912L5 20.031V9.563Zm4.5-2.776v9.24a7.492 7.492 0 0 0 1.761 1.472h.051l.094.001h1.282l.05-.001.024-.014.062-.038c1.3-.806 2.351-2.135 3.081-3.627.496-1.014.823-2.06.982-3.003l.08-.955L9.5 6.787Z" clip-rule="evenodd"/></svg>